<svg width="300.9225219726562px" height="90.57626342773438px" xmlns="http://www.w3.org/2000/svg" viewBox="-28.961260986328114 -36.28813171386719 557.9225219726562 222.57626342773438" style="background: rgb(29, 33, 36);" preserveAspectRatio="xMidYMid"><defs><filter id="editing-hover" x="-100%" y="-100%" width="300%" height="300%"><feFlood flood-color="rgba(1.9607843137254888%,16.862745098039188%,29.01960784313726%,0.022)" result="flood"></feFlood><feComposite operator="in" in2="SourceAlpha" in="flood" result="shadow"></feComposite><feOffset dx="0" dy="2.9" in="SourceGraphic" result="offset-1"></feOffset><feOffset dx="0" dy="-2.9" in="shadow" result="offset-2"></feOffset><feMerge><feMergeNode in="offset-2"></feMergeNode><feMergeNode in="offset-1"></feMergeNode></feMerge></filter></defs><g filter="url(#editing-hover)"><g transform="translate(51.274991512298584, 102.43406295776367)"><path d="M28.27-4.51L17.83-16.65L17.83-0.30L17.83-0.30Q17.02-0.07 15.24 0.15L15.24 0.15L15.24 0.15Q13.47 0.37 11.77 0.37L11.77 0.37L11.77 0.37Q10.06 0.37 8.77 0.11L8.77 0.11L8.77 0.11Q7.47-0.15 6.59-0.81L6.59-0.81L6.59-0.81Q5.70-1.48 5.25-2.66L5.25-2.66L5.25-2.66Q4.81-3.85 4.81-5.77L4.81-5.77L4.81-44.84L4.81-44.84Q5.62-44.99 7.40-45.25L7.40-45.25L7.40-45.25Q9.18-45.51 10.80-45.51L10.80-45.51L10.80-45.51Q12.51-45.51 13.80-45.25L13.80-45.25L13.80-45.25Q15.10-44.99 15.98-44.33L15.98-44.33L15.98-44.33Q16.87-43.66 17.32-42.48L17.32-42.48L17.32-42.48Q17.76-41.29 17.76-39.37L17.76-39.37L17.76-27.60L33.15-45.29L33.15-45.29Q38.18-45.29 40.37-43.40L40.37-43.40L40.37-43.40Q42.55-41.51 42.55-38.92L42.55-38.92L42.55-38.92Q42.55-37 41.59-35.30L41.59-35.30L41.59-35.30Q40.63-33.60 38.48-31.45L38.48-31.45L29.23-22.20L29.23-22.20Q31.08-20.13 33.08-17.98L33.08-17.98L33.08-17.98Q35.08-15.84 37-13.73L37-13.73L37-13.73Q38.92-11.62 40.74-9.69L40.74-9.69L40.74-9.69Q42.55-7.77 44.03-6.22L44.03-6.22L44.03-6.22Q44.03-4.59 43.44-3.33L43.44-3.33L43.44-3.33Q42.85-2.07 41.85-1.18L41.85-1.18L41.85-1.18Q40.85-0.30 39.59 0.15L39.59 0.15L39.59 0.15Q38.33 0.59 36.93 0.59L36.93 0.59L36.93 0.59Q33.89 0.59 31.97-0.92L31.97-0.92L31.97-0.92Q30.04-2.44 28.27-4.51L28.27-4.51ZM64.75-7.99L64.75-7.99L64.75-7.99Q66.01-7.99 67.53-8.25L67.53-8.25L67.53-8.25Q69.04-8.51 69.78-8.95L69.78-8.95L69.78-14.87L64.45-14.43L64.45-14.43Q62.38-14.28 61.05-13.54L61.05-13.54L61.05-13.54Q59.72-12.80 59.72-11.32L59.72-11.32L59.72-11.32Q59.72-9.84 60.86-8.92L60.86-8.92L60.86-8.92Q62.01-7.99 64.75-7.99ZM64.16-37.07L64.16-37.07L64.16-37.07Q68.15-37.07 71.45-36.26L71.45-36.26L71.45-36.26Q74.74-35.45 77.07-33.78L77.07-33.78L77.07-33.78Q79.40-32.12 80.66-29.56L80.66-29.56L80.66-29.56Q81.92-27.01 81.92-23.53L81.92-23.53L81.92-6.96L81.92-6.96Q81.92-5.03 80.84-3.81L80.84-3.81L80.84-3.81Q79.77-2.59 78.29-1.70L78.29-1.70L78.29-1.70Q73.48 1.18 64.75 1.18L64.75 1.18L64.75 1.18Q60.83 1.18 57.68 0.44L57.68 0.44L57.68 0.44Q54.54-0.30 52.28-1.78L52.28-1.78L52.28-1.78Q50.02-3.26 48.80-5.55L48.80-5.55L48.80-5.55Q47.58-7.84 47.58-10.88L47.58-10.88L47.58-10.88Q47.58-15.98 50.62-18.72L50.62-18.72L50.62-18.72Q53.65-21.46 60.01-22.13L60.01-22.13L69.71-23.16L69.71-23.68L69.71-23.68Q69.71-25.83 67.82-26.75L67.82-26.75L67.82-26.75Q65.93-27.68 62.38-27.68L62.38-27.68L62.38-27.68Q59.57-27.68 56.91-27.08L56.91-27.08L56.91-27.08Q54.24-26.49 52.10-25.60L52.10-25.60L52.10-25.60Q51.13-26.27 50.47-27.64L50.47-27.64L50.47-27.64Q49.80-29.01 49.80-30.49L49.80-30.49L49.80-30.49Q49.80-32.41 50.73-33.56L50.73-33.56L50.73-33.56Q51.65-34.71 53.58-35.52L53.58-35.52L53.58-35.52Q55.72-36.33 58.64-36.70L58.64-36.70L58.64-36.70Q61.57-37.07 64.16-37.07ZM102.19-25.31L102.19-0.07L102.19-0.07Q101.45 0.15 99.86 0.37L99.86 0.37L99.86 0.37Q98.27 0.59 96.57 0.59L96.57 0.59L96.57 0.59Q94.94 0.59 93.65 0.37L93.65 0.37L93.65 0.37Q92.35 0.15 91.46-0.52L91.46-0.52L91.46-0.52Q90.58-1.18 90.09-2.33L90.09-2.33L90.09-2.33Q89.61-3.48 89.61-5.33L89.61-5.33L89.61-27.53L89.61-27.53Q89.61-29.23 90.24-30.45L90.24-30.45L90.24-30.45Q90.87-31.67 92.06-32.63L92.06-32.63L92.06-32.63Q93.24-33.60 94.98-34.37L94.98-34.37L94.98-34.37Q96.72-35.15 98.72-35.74L98.72-35.74L98.72-35.74Q100.71-36.33 102.86-36.67L102.86-36.67L102.86-36.67Q105.01-37 107.15-37L107.15-37L107.15-37Q110.70-37 112.78-35.63L112.78-35.63L112.78-35.63Q114.85-34.26 114.85-31.15L114.85-31.15L114.85-31.15Q114.85-30.12 114.55-29.12L114.55-29.12L114.55-29.12Q114.26-28.12 113.81-27.31L113.81-27.31L113.81-27.31Q112.26-27.31 110.63-27.16L110.63-27.16L110.63-27.16Q109.00-27.01 107.45-26.71L107.45-26.71L107.45-26.71Q105.89-26.42 104.52-26.08L104.52-26.08L104.52-26.08Q103.16-25.75 102.19-25.31L102.19-25.31ZM132.61-23.53L132.61-12.36L132.61-12.36Q132.61-10.43 133.83-9.62L133.83-9.62L133.83-9.62Q135.05-8.81 137.27-8.81L137.27-8.81L137.27-8.81Q138.38-8.81 139.56-8.99L139.56-8.99L139.56-8.99Q140.75-9.18 141.64-9.47L141.64-9.47L141.64-9.47Q142.30-8.66 142.78-7.66L142.78-7.66L142.78-7.66Q143.26-6.66 143.26-5.25L143.26-5.25L143.26-5.25Q143.26-2.44 141.16-0.67L141.16-0.67L141.16-0.67Q139.05 1.11 133.72 1.11L133.72 1.11L133.72 1.11Q127.21 1.11 123.69-1.85L123.69-1.85L123.69-1.85Q120.18-4.81 120.18-11.47L120.18-11.47L120.18-43.14L120.18-43.14Q120.99-43.36 122.51-43.62L122.51-43.62L122.51-43.62Q124.02-43.88 125.73-43.88L125.73-43.88L125.73-43.88Q128.98-43.88 130.79-42.73L130.79-42.73L130.79-42.73Q132.61-41.59 132.61-37.89L132.61-37.89L132.61-33.15L142.30-33.15L142.30-33.15Q142.75-32.34 143.15-31.12L143.15-31.12L143.15-31.12Q143.56-29.90 143.56-28.42L143.56-28.42L143.56-28.42Q143.56-25.83 142.41-24.68L142.41-24.68L142.41-24.68Q141.27-23.53 139.34-23.53L139.34-23.53L132.61-23.53ZM149.33-45.95L149.33-45.95L149.33-45.95Q149.33-48.77 151.22-50.69L151.22-50.69L151.22-50.69Q153.11-52.61 156.21-52.61L156.21-52.61L156.21-52.61Q159.32-52.61 161.21-50.69L161.21-50.69L161.21-50.69Q163.10-48.77 163.10-45.95L163.10-45.95L163.10-45.95Q163.10-43.14 161.21-41.22L161.21-41.22L161.21-41.22Q159.32-39.29 156.21-39.29L156.21-39.29L156.21-39.29Q153.11-39.29 151.22-41.22L151.22-41.22L151.22-41.22Q149.33-43.14 149.33-45.95ZM162.50-30.19L162.50-0.07L162.50-0.07Q161.69 0.07 160.10 0.33L160.10 0.33L160.10 0.33Q158.51 0.59 156.88 0.59L156.88 0.59L156.88 0.59Q155.25 0.59 153.96 0.37L153.96 0.37L153.96 0.37Q152.66 0.15 151.77-0.52L151.77-0.52L151.77-0.52Q150.89-1.18 150.41-2.33L150.41-2.33L150.41-2.33Q149.92-3.48 149.92-5.33L149.92-5.33L149.92-35.45L149.92-35.45Q150.74-35.59 152.33-35.85L152.33-35.85L152.33-35.85Q153.92-36.11 155.55-36.11L155.55-36.11L155.55-36.11Q157.18-36.11 158.47-35.89L158.47-35.89L158.47-35.89Q159.77-35.67 160.65-35.00L160.65-35.00L160.65-35.00Q161.54-34.34 162.02-33.19L162.02-33.19L162.02-33.19Q162.50-32.04 162.50-30.19L162.50-30.19ZM193.81-18.35L205.65-6.51L205.65-6.51Q205.28-3.03 203.61-1.18L203.61-1.18L203.61-1.18Q201.95 0.67 198.76 0.67L198.76 0.67L198.76 0.67Q196.40 0.67 194.55-0.48L194.55-0.48L194.55-0.48Q192.70-1.63 190.55-4.37L190.55-4.37L183.22-13.54L183.22-0.07L183.22-0.07Q182.41 0.07 180.82 0.33L180.82 0.33L180.82 0.33Q179.23 0.59 177.60 0.59L177.60 0.59L177.60 0.59Q175.97 0.59 174.68 0.37L174.68 0.37L174.68 0.37Q173.38 0.15 172.49-0.52L172.49-0.52L172.49-0.52Q171.61-1.18 171.13-2.33L171.13-2.33L171.13-2.33Q170.64-3.48 170.64-5.33L170.64-5.33L170.64-48.17L170.64-48.17Q171.46-48.40 173.05-48.66L173.05-48.66L173.05-48.66Q174.64-48.91 176.27-48.91L176.27-48.91L176.27-48.91Q177.90-48.91 179.19-48.69L179.19-48.69L179.19-48.69Q180.49-48.47 181.37-47.80L181.37-47.80L181.37-47.80Q182.26-47.14 182.74-45.99L182.74-45.99L182.74-45.99Q183.22-44.84 183.22-42.99L183.22-42.99L183.22-23.46L195.95-36.48L195.95-36.48Q199.80-36.48 202.13-34.78L202.13-34.78L202.13-34.78Q204.46-33.08 204.46-30.49L204.46-30.49L204.46-30.49Q204.46-29.38 204.09-28.45L204.09-28.45L204.09-28.45Q203.72-27.53 202.94-26.57L202.94-26.57L202.94-26.57Q202.17-25.60 200.95-24.53L200.95-24.53L200.95-24.53Q199.73-23.46 198.10-22.05L198.10-22.05L193.81-18.35ZM240.20-24.05L244.13-24.05L244.13-24.05Q247.23-24.05 248.90-25.49L248.90-25.49L248.90-25.49Q250.56-26.94 250.56-29.90L250.56-29.90L250.56-29.90Q250.56-32.71 248.82-34.23L248.82-34.23L248.82-34.23Q247.09-35.74 243.76-35.74L243.76-35.74L243.76-35.74Q242.57-35.74 241.79-35.70L241.79-35.70L241.79-35.70Q241.02-35.67 240.20-35.52L240.20-35.52L240.20-24.05ZM240.28-13.91L240.28-0.30L240.28-0.30Q239.46-0.07 237.72 0.15L237.72 0.15L237.72 0.15Q235.99 0.37 234.28 0.37L234.28 0.37L234.28 0.37Q232.58 0.37 231.29 0.11L231.29 0.11L231.29 0.11Q229.99-0.15 229.10-0.81L229.10-0.81L229.10-0.81Q228.22-1.48 227.77-2.66L227.77-2.66L227.77-2.66Q227.33-3.85 227.33-5.77L227.33-5.77L227.33-40.63L227.33-40.63Q227.33-42.18 228.18-43.03L228.18-43.03L228.18-43.03Q229.03-43.88 230.51-44.40L230.51-44.40L230.51-44.40Q233.03-45.29 236.25-45.70L236.25-45.70L236.25-45.70Q239.46-46.10 242.72-46.10L242.72-46.10L242.72-46.10Q252.93-46.10 258.33-41.74L258.33-41.74L258.33-41.74Q263.74-37.37 263.74-29.90L263.74-29.90L263.74-29.90Q263.74-26.27 262.59-23.35L262.59-23.35L262.59-23.35Q261.44-20.42 259.19-18.31L259.19-18.31L259.19-18.31Q256.93-16.21 253.49-15.06L253.49-15.06L253.49-15.06Q250.05-13.91 245.53-13.91L245.53-13.91L240.28-13.91ZM284.75-7.99L284.75-7.99L284.75-7.99Q286.01-7.99 287.53-8.25L287.53-8.25L287.53-8.25Q289.04-8.51 289.78-8.95L289.78-8.95L289.78-14.87L284.46-14.43L284.46-14.43Q282.38-14.28 281.05-13.54L281.05-13.54L281.05-13.54Q279.72-12.80 279.72-11.32L279.72-11.32L279.72-11.32Q279.72-9.84 280.87-8.92L280.87-8.92L280.87-8.92Q282.01-7.99 284.75-7.99ZM284.16-37.07L284.16-37.07L284.16-37.07Q288.16-37.07 291.45-36.26L291.45-36.26L291.45-36.26Q294.74-35.45 297.07-33.78L297.07-33.78L297.07-33.78Q299.40-32.12 300.66-29.56L300.66-29.56L300.66-29.56Q301.92-27.01 301.92-23.53L301.92-23.53L301.92-6.96L301.92-6.96Q301.92-5.03 300.85-3.81L300.85-3.81L300.85-3.81Q299.77-2.59 298.29-1.70L298.29-1.70L298.29-1.70Q293.48 1.18 284.75 1.18L284.75 1.18L284.75 1.18Q280.83 1.18 277.69 0.44L277.69 0.44L277.69 0.44Q274.54-0.30 272.28-1.78L272.28-1.78L272.28-1.78Q270.03-3.26 268.81-5.55L268.81-5.55L268.81-5.55Q267.58-7.84 267.58-10.88L267.58-10.88L267.58-10.88Q267.58-15.98 270.62-18.72L270.62-18.72L270.62-18.72Q273.65-21.46 280.02-22.13L280.02-22.13L289.71-23.16L289.71-23.68L289.71-23.68Q289.71-25.83 287.82-26.75L287.82-26.75L287.82-26.75Q285.94-27.68 282.38-27.68L282.38-27.68L282.38-27.68Q279.57-27.68 276.91-27.08L276.91-27.08L276.91-27.08Q274.24-26.49 272.10-25.60L272.10-25.60L272.10-25.60Q271.14-26.27 270.47-27.64L270.47-27.64L270.47-27.64Q269.80-29.01 269.80-30.49L269.80-30.49L269.80-30.49Q269.80-32.41 270.73-33.56L270.73-33.56L270.73-33.56Q271.65-34.71 273.58-35.52L273.58-35.52L273.58-35.52Q275.72-36.33 278.65-36.70L278.65-36.70L278.65-36.70Q281.57-37.07 284.16-37.07ZM322.20-23.53L322.20-12.36L322.20-12.36Q322.20-10.43 323.42-9.62L323.42-9.62L323.42-9.62Q324.64-8.81 326.86-8.81L326.86-8.81L326.86-8.81Q327.97-8.81 329.15-8.99L329.15-8.99L329.15-8.99Q330.34-9.18 331.22-9.47L331.22-9.47L331.22-9.47Q331.89-8.66 332.37-7.66L332.37-7.66L332.37-7.66Q332.85-6.66 332.85-5.25L332.85-5.25L332.85-5.25Q332.85-2.44 330.74-0.67L330.74-0.67L330.74-0.67Q328.63 1.11 323.31 1.11L323.31 1.11L323.31 1.11Q316.79 1.11 313.28-1.85L313.28-1.85L313.28-1.85Q309.76-4.81 309.76-11.47L309.76-11.47L309.76-43.14L309.76-43.14Q310.58-43.36 312.10-43.62L312.10-43.62L312.10-43.62Q313.61-43.88 315.31-43.88L315.31-43.88L315.31-43.88Q318.57-43.88 320.38-42.73L320.38-42.73L320.38-42.73Q322.20-41.59 322.20-37.89L322.20-37.89L322.20-33.15L331.89-33.15L331.89-33.15Q332.33-32.34 332.74-31.12L332.74-31.12L332.74-31.12Q333.15-29.90 333.15-28.42L333.15-28.42L333.15-28.42Q333.15-25.83 332.00-24.68L332.00-24.68L332.00-24.68Q330.85-23.53 328.93-23.53L328.93-23.53L322.20-23.53ZM358.23 1.18L358.23 1.18L358.23 1.18Q353.87 1.18 350.13-0.04L350.13-0.04L350.13-0.04Q346.39-1.26 343.62-3.70L343.62-3.70L343.62-3.70Q340.84-6.14 339.25-9.84L339.25-9.84L339.25-9.84Q337.66-13.54 337.66-18.50L337.66-18.50L337.66-18.50Q337.66-23.38 339.25-26.90L339.25-26.90L339.25-26.90Q340.84-30.41 343.43-32.67L343.43-32.67L343.43-32.67Q346.02-34.93 349.35-36.00L349.35-36.00L349.35-36.00Q352.68-37.07 356.16-37.07L356.16-37.07L356.16-37.07Q360.08-37.07 363.30-35.89L363.30-35.89L363.30-35.89Q366.52-34.71 368.85-32.63L368.85-32.63L368.85-32.63Q371.18-30.56 372.48-27.68L372.48-27.68L372.48-27.68Q373.77-24.79 373.77-21.39L373.77-21.39L373.77-21.39Q373.77-18.87 372.37-17.54L372.37-17.54L372.37-17.54Q370.96-16.21 368.45-15.84L368.45-15.84L350.17-13.10L350.17-13.10Q350.98-10.66 353.50-9.43L353.50-9.43L353.50-9.43Q356.01-8.21 359.27-8.21L359.27-8.21L359.27-8.21Q362.30-8.21 365.01-8.99L365.01-8.99L365.01-8.99Q367.71-9.77 369.41-10.80L369.41-10.80L369.41-10.80Q370.59-10.06 371.41-8.73L371.41-8.73L371.41-8.73Q372.22-7.40 372.22-5.92L372.22-5.92L372.22-5.92Q372.22-2.59 369.11-0.96L369.11-0.96L369.11-0.96Q366.74 0.30 363.78 0.74L363.78 0.74L363.78 0.74Q360.82 1.18 358.23 1.18ZM356.16-27.90L356.16-27.90L356.16-27.90Q354.39-27.90 353.09-27.31L353.09-27.31L353.09-27.31Q351.80-26.71 350.98-25.79L350.98-25.79L350.98-25.79Q350.17-24.86 349.76-23.72L349.76-23.72L349.76-23.72Q349.35-22.57 349.28-21.39L349.28-21.39L361.93-23.46L361.93-23.46Q361.71-24.94 360.31-26.42L360.31-26.42L360.31-26.42Q358.90-27.90 356.16-27.90ZM392.64-42.99L392.64-0.07L392.64-0.07Q391.83 0.07 390.24 0.33L390.24 0.33L390.24 0.33Q388.65 0.59 387.02 0.59L387.02 0.59L387.02 0.59Q385.39 0.59 384.10 0.37L384.10 0.37L384.10 0.37Q382.80 0.15 381.91-0.52L381.91-0.52L381.91-0.52Q381.03-1.18 380.55-2.33L380.55-2.33L380.55-2.33Q380.06-3.48 380.06-5.33L380.06-5.33L380.06-48.25L380.06-48.25Q380.88-48.40 382.47-48.66L382.47-48.66L382.47-48.66Q384.06-48.91 385.69-48.91L385.69-48.91L385.69-48.91Q387.32-48.91 388.61-48.69L388.61-48.69L388.61-48.69Q389.91-48.47 390.79-47.80L390.79-47.80L390.79-47.80Q391.68-47.14 392.16-45.99L392.16-45.99L392.16-45.99Q392.64-44.84 392.64-42.99L392.64-42.99Z" fill="#ffffff"></path></g></g><style>text {
  font-size: 64px;
  font-family: Arial Black;
  dominant-baseline: central;
  text-anchor: middle;
}</style></svg>